<svg width="70" height="70" viewBox="0 0 70 70" fill="none" xmlns="http://www.w3.org/2000/svg">
<path d="M45.3226 26.3549H52.4194C52.8113 26.3549 53.129 26.6726 53.129 27.0645V29.0431C53.129 29.6537 53.8491 29.9793 54.3075 29.5758L61.3946 23.3392C61.7157 23.0566 61.7157 22.5563 61.3946 22.2737L54.3075 16.0371C53.8491 15.6337 53.129 15.9592 53.129 16.5699V18.5484C53.129 18.9403 52.8113 19.2581 52.4194 19.2581H40" stroke="#EDF1FE" stroke-width="1.2" stroke-linecap="round"/>
<circle cx="2" cy="2" r="1.5" transform="matrix(-1 0 0 1 49.5 32)" stroke="#00A0D2"/>
<path d="M12.0575 21.405H9.83774L15.8893 38.5113L19.2772 28.83L16.6505 21.405H14.3085V19.775H24.6797V21.405H22.251L28.3025 38.5113L30.4778 32.295C33.3313 24.3307 28.139 21.8498 28.139 20.0723C28.139 18.2949 29.5799 16.8541 31.3573 16.8541C31.4534 16.8541 31.5468 16.8593 31.6383 16.8678C28.6267 14.0249 24.5659 12.2815 20.0976 12.2815C14.259 12.2815 9.11603 15.2576 6.10115 19.775H12.0573V21.405H12.0575ZM3.28156 29.0977C3.28156 35.5358 6.90017 41.1279 12.2139 43.9537L4.62504 22.5018C3.76057 24.5271 3.28156 26.7564 3.28156 29.0977ZM34.7327 20.8112C34.9733 22.2275 34.9004 23.8194 34.5313 25.4174H34.5982L34.3439 26.1439C34.1933 26.6686 34.0036 27.2052 33.7881 27.7326L28.0018 43.9429C33.3044 41.1137 36.9137 35.5275 36.9137 29.0976C36.9137 26.0846 36.1206 23.2571 34.7327 20.8112Z" fill="#00A0D2"/>
<path d="M14.9114 45.0974C16.5451 45.6266 18.2877 45.9137 20.0977 45.9137C21.8241 45.9137 23.4896 45.6531 25.0575 45.1698L20.1386 31.2651L14.9114 45.0974Z" fill="#00A0D2"/>
<path d="M34.3089 14.8865C30.513 11.0905 25.4659 9 20.0976 9C14.7293 9 9.6824 11.0905 5.88646 14.8865C2.09052 18.6824 0 23.7294 0 29.0977C0 34.466 2.09052 39.513 5.88646 43.3089C9.6824 47.1049 14.7294 49.1954 20.0977 49.1954C25.466 49.1954 30.513 47.1049 34.309 43.3089C38.105 39.513 40.1955 34.4659 40.1955 29.0977C40.1954 23.7294 38.1049 18.6824 34.3089 14.8865ZM20.0976 47.7776C9.79751 47.7776 1.41774 39.3979 1.41774 29.0977C1.41774 18.7976 9.79751 10.4177 20.0976 10.4177C30.3978 10.4177 38.7776 18.7976 38.7776 29.0977C38.7776 39.3979 30.3979 47.7776 20.0976 47.7776Z" fill="#00A0D2"/>
<path fill-rule="evenodd" clip-rule="evenodd" d="M54.4583 36.504C54.4583 35.9461 55.1161 35.6488 55.5349 36.0173L68.4833 47.412C68.7767 47.6701 68.7767 48.1272 68.4833 48.3854L55.5349 59.78C55.1161 60.1486 54.4583 59.8512 54.4583 59.2933V55.6784C54.4583 54.6043 53.5875 53.7335 52.5133 53.7335H29.8224C29.8044 53.7335 29.7866 53.7342 29.7689 53.7357C29.4611 51.8949 27.8607 50.4921 25.9325 50.4921C23.7842 50.4921 22.0426 52.2336 22.0426 54.3819C22.0426 56.5302 23.7842 58.2718 25.9325 58.2718C27.8607 58.2718 29.4613 56.8688 29.769 55.0279C29.7866 55.0294 29.8044 55.0301 29.8224 55.0301H52.5133C52.8714 55.0301 53.1616 55.3204 53.1616 55.6784V59.2933C53.1616 60.9669 55.135 61.8591 56.3914 60.7534L69.3399 49.3588C70.22 48.5843 70.22 47.213 69.3399 46.4386L56.3914 35.0439C55.1351 33.9383 53.1616 34.8304 53.1616 36.504V40.1189C53.1616 40.477 52.8714 40.7672 52.5133 40.7672H39.5471C39.189 40.7672 38.8988 41.0575 38.8988 41.4155C38.8988 41.7736 39.189 42.0639 39.5471 42.0639H52.5133C53.5875 42.0639 54.4583 41.1931 54.4583 40.1189V36.504ZM28.2664 54.3819C28.2664 55.6709 27.2215 56.7159 25.9325 56.7159C24.6435 56.7159 23.5986 55.6709 23.5986 54.3819C23.5986 53.0929 24.6435 52.048 25.9325 52.048C27.2215 52.048 28.2664 53.0929 28.2664 54.3819ZM40.1954 49.1954C40.9115 49.1954 41.492 48.6149 41.492 47.8988C41.492 47.1827 40.9115 46.6022 40.1954 46.6022C39.4793 46.6022 38.8988 47.1827 38.8988 47.8988C38.8988 48.6149 39.4793 49.1954 40.1954 49.1954ZM42.707 48.5471C42.4191 49.6656 41.4038 50.4921 40.1954 50.4921C38.7632 50.4921 37.6021 49.331 37.6021 47.8988C37.6021 46.4666 38.7632 45.3056 40.1954 45.3056C41.4037 45.3056 42.419 46.132 42.7069 47.2504H51.2167C51.5747 47.2504 51.865 47.5407 51.865 47.8987C51.865 48.2568 51.5747 48.5471 51.2167 48.5471H42.707Z" fill="#EDF1FE"/>
<path d="M39 34.5C38.7239 34.5 38.5 34.2761 38.5 34C38.5 33.7239 38.7239 33.5 39 33.5V34.5ZM39 33.5H46V34.5H39V33.5Z" fill="#00A0D2"/>
</svg>
