<?xml version="1.0" encoding="UTF-8" standalone="no"?>
<svg
   width="111.64687"
   height="83.323792"
   viewBox="0 0 111.64687 83.323792"
   fill="none"
   version="1.1"
   id="svg16"
   sodipodi:docname="migration-logo-readme.svg"
   inkscape:version="1.1.2 (0a00cf5339, 2022-02-04)"
   xmlns:inkscape="http://www.inkscape.org/namespaces/inkscape"
   xmlns:sodipodi="http://sodipodi.sourceforge.net/DTD/sodipodi-0.dtd"
   xmlns="http://www.w3.org/2000/svg"
   xmlns:svg="http://www.w3.org/2000/svg">
  <defs
     id="defs20" />
  <sodipodi:namedview
     id="namedview18"
     pagecolor="#ffffff"
     bordercolor="#666666"
     borderopacity="1.0"
     inkscape:pageshadow="2"
     inkscape:pageopacity="0.0"
     inkscape:pagecheckerboard="0"
     showgrid="false"
     inkscape:zoom="3.0142857"
     inkscape:cx="13.436019"
     inkscape:cy="39.478673"
     inkscape:window-width="1920"
     inkscape:window-height="1043"
     inkscape:window-x="1920"
     inkscape:window-y="0"
     inkscape:window-maximized="1"
     inkscape:current-layer="svg16" />
  <path
     d="m 72.287548,27.6803 h 11.319083 c 0.625064,0 1.131781,0.506718 1.131781,1.131781 v 3.15578 c 0,0.97388 1.148528,1.493197 1.879656,0.849633 l 11.303611,-9.947102 c 0.512141,-0.450735 0.512141,-1.248691 0,-1.699426 L 86.618068,11.223864 c -0.731128,-0.643405 -1.879656,-0.124247 -1.879656,0.849793 v 3.15562 c 0,0.625063 -0.506717,1.13194 -1.131781,1.13194 H 63.798236"
     stroke="#EDF1FE"
     stroke-width="1.91395"
     stroke-linecap="round"
     id="path2"
     style="fill:#ffffff;stroke:#917c6f;stroke-opacity:1" />
  <circle
     cx="-75.760406"
     cy="39.873898"
     r="2.3924339"
     transform="scale(-1,1)"
     stroke="#00a0d2"
     id="circle4"
     style="stroke-width:1.59496" />
  <path
     d="m 19.231181,19.785428 h -3.54042 L 25.342733,47.069222 30.746284,31.627976 26.556813,19.785428 H 22.821426 V 17.18565 h 16.541607 v 2.599778 h -3.873669 l 9.651875,27.283794 3.469508,-9.914724 C 53.161954,24.451791 44.880464,20.494864 44.880464,17.65983 c 0,-2.834874 2.298172,-5.132887 5.133047,-5.132887 0.153275,0 0.302244,0.0083 0.448182,0.02185 -4.803369,-4.5343 -11.280166,-7.3149461 -18.406907,-7.3149461 -9.31231,0 -17.51512,4.7467482 -22.3237208,11.9518021 h 9.4997968 v 2.599778 z M 5.2339435,32.054945 c 0,10.268486 5.7715235,19.187639 14.2466885,23.694665 L 7.3767348,21.534776 C 5.9979433,24.76504 5.2339435,28.320675 5.2339435,32.054945 Z M 55.397125,18.838343 c 0.383746,2.258936 0.267474,4.797947 -0.321224,7.346686 h 0.106702 l -0.405597,1.158736 c -0.2402,0.836873 -0.542764,1.692726 -0.886477,2.533906 l -9.228893,25.854714 c 8.457413,-4.51245 14.214088,-13.422192 14.214088,-23.677599 0,-4.805602 -1.26496,-9.31534 -3.478599,-13.216443 z"
     fill="#00a0d2"
     id="path6"
     style="stroke-width:1.59496" />
  <path
     d="m 23.783025,57.573761 c 2.60568,0.844051 5.38505,1.301963 8.27192,1.301963 2.753532,0 5.409931,-0.415646 7.910662,-1.186488 L 32.120179,35.511853 Z"
     fill="#00a0d2"
     id="path8"
     style="stroke-width:1.59496" />
  <path
     d="M 54.721182,9.388708 C 48.666889,3.3342554 40.616987,1e-7 32.054786,1e-7 23.492584,1e-7 15.443001,3.3342554 9.3886441,9.388708 3.3342872,15.443001 0,23.492744 0,32.054945 c 0,8.562202 3.3342872,16.611944 9.3886441,22.666238 6.0543569,6.054452 14.1040989,9.388707 22.6663009,9.388707 8.562202,0 16.611944,-3.334255 22.666397,-9.388707 C 60.775795,48.666889 64.11005,40.616988 64.11005,32.054945 64.10989,23.492744 60.775635,15.443001 54.721182,9.388708 Z M 32.054786,61.848562 c -16.42819,0 -29.7935532,-13.365252 -29.7935532,-29.793617 0,-16.428205 13.3653632,-29.7937759 29.7935532,-29.7937759 16.428364,0 29.793776,13.3655709 29.793776,29.7937759 0,16.428365 -13.365252,29.793617 -29.793776,29.793617 z"
     fill="#00a0d2"
     id="path10"
     style="stroke-width:1.59496" />
  <path
     fill-rule="evenodd"
     clip-rule="evenodd"
     d="m 86.858587,43.867667 c 0,-0.889826 1.049162,-1.364006 1.717129,-0.776265 l 20.652124,18.174044 c 0.46796,0.411658 0.46796,1.140713 0,1.55253 L 88.575716,80.991861 c -0.667967,0.5879 -1.717129,0.113561 -1.717129,-0.776265 V 74.44999 c 0,-1.713143 -1.388888,-3.10203 -3.102189,-3.10203 H 47.565413 c -0.02871,0 -0.0571,0.0011 -0.08533,0.0035 -0.490928,-2.935995 -3.043495,-5.173399 -6.118889,-5.173399 -3.426444,0 -6.204219,2.777615 -6.204219,6.204059 0,3.426444 2.777775,6.204219 6.204219,6.204219 3.075394,0 5.62828,-2.237723 6.119048,-5.173877 0.02807,0.0024 0.05646,0.0035 0.08517,0.0035 h 36.190985 c 0.571153,0 1.03401,0.463015 1.03401,1.03401 v 5.765606 c 0,2.669318 3.147486,4.092338 5.151388,2.328795 L 110.59408,64.370506 c 1.40372,-1.235293 1.40372,-3.422456 0,-4.65759 L 89.941796,41.538872 c -2.003743,-1.763383 -5.151388,-0.340523 -5.151388,2.328795 v 5.765606 c 0,0.571154 -0.462857,1.03401 -1.03401,1.03401 H 63.07588 c -0.571153,0 -1.034009,0.463016 -1.034009,1.03401 0,0.571154 0.462856,1.034169 1.034009,1.034169 h 20.680518 c 1.713301,0 3.102189,-1.388887 3.102189,-3.102189 z M 45.083661,72.382129 c 0,2.055898 -1.666569,3.722627 -3.722467,3.722627 -2.055898,0 -3.722468,-1.666729 -3.722468,-3.722627 0,-2.055898 1.66657,-3.722467 3.722468,-3.722467 2.055898,0 3.722467,1.666569 3.722467,3.722467 z M 64.10989,64.10989 c 1.142148,0 2.06802,-0.925871 2.06802,-2.068019 0,-1.142148 -0.925872,-2.06802 -2.06802,-2.06802 -1.142148,0 -2.068019,0.925872 -2.068019,2.06802 0,1.142148 0.925871,2.068019 2.068019,2.068019 z m 4.005892,-1.034009 c -0.459188,1.783958 -2.078547,3.102189 -4.005892,3.102189 -2.284295,0 -4.136199,-1.851903 -4.136199,-4.136199 0,-2.284296 1.851904,-4.13604 4.136199,-4.13604 1.927186,0 3.546544,1.318072 4.005732,3.10187 h 13.572756 c 0.570994,0 1.03401,0.463016 1.03401,1.03401 0,0.571154 -0.463016,1.03417 -1.03401,1.03417 z"
     fill="#EDF1FE"
     id="path12"
     style="fill:#917c6f;stroke-width:1.59496" />
  <path
     d="m 62.20328,40.671376 c -0.440367,0 -0.797478,-0.357111 -0.797478,-0.797478 0,-0.440368 0.357111,-0.797478 0.797478,-0.797478 z m 0,-1.594956 h 11.164691 v 1.594956 H 62.20328 Z"
     fill="#00a0d2"
     id="path14"
     style="stroke-width:1.59496" />
</svg>
